# Blender v3.2.2 OBJ File: 'crab1.blend'
# www.blender.org
mtllib crab.mtl
o Crab_Cube.001
v -0.210378 -1.325333 2.457401
v -0.210378 -0.884797 2.457401
v -0.210378 -0.444260 2.457401
v -0.210378 -0.003724 2.457401
v -0.210378 -0.003724 -2.388500
v -0.210378 -0.444260 -2.388500
v -0.210378 -0.884797 -2.388500
v -0.210378 -1.325333 -2.388500
v 0.210378 -0.003724 -2.388500
v 0.210378 -0.444260 -2.388500
v 0.210378 -0.884797 -2.388500
v 0.210378 -1.325333 -2.388500
v 0.210378 -0.003724 2.457401
v 0.210378 -0.444260 2.457401
v 0.210378 -0.884797 2.457401
v 0.210378 -1.325333 2.457401
v 0.210378 0.436813 -1.947964
v 0.210378 -0.003724 -1.947964
v 0.210378 -0.444260 -1.947964
v 0.210378 -0.884797 -1.947964
v 0.210378 -1.325333 -1.947964
v 0.210378 1.758422 -1.507427
v 0.210378 1.317886 -1.507427
v 0.210378 0.877349 -1.507427
v 0.210378 0.436813 -1.507427
v 0.210378 -0.003724 -1.507427
v 0.210378 -0.444260 -1.507427
v 0.210378 -0.884797 -1.507427
v 0.210378 -1.325333 -1.507427
v 0.210378 1.758422 -1.066891
v 0.210378 1.317886 -1.066891
v 0.210378 0.877349 -1.066891
v 0.210378 0.436813 -1.066891
v 0.210378 -0.003724 -1.066891
v 0.210378 -0.444260 -1.066891
v 0.210378 -0.884797 -1.066891
v 0.210378 -1.325333 -1.066891
v 0.210378 -1.765870 -1.066891
v 0.210378 1.317886 -0.626354
v 0.210378 0.877349 -0.626354
v 0.210378 0.436813 -0.626354
v 0.210378 -0.003724 -0.626354
v 0.210378 -0.444260 -0.626354
v 0.210378 -0.884797 -0.626354
v 0.210378 -1.325333 -0.626354
v 0.210378 -1.765870 -0.626354
v 0.210378 0.877349 -0.185818
v 0.210378 0.436813 -0.185818
v 0.210378 -0.003724 -0.185818
v 0.210378 -0.444260 -0.185818
v 0.210378 -0.884797 -0.185818
v 0.210378 -1.325333 -0.185818
v 0.210378 -1.765870 -0.185818
v 0.210378 0.877349 0.254718
v 0.210378 0.436813 0.254718
v 0.210378 -0.003724 0.254718
v 0.210378 -0.444260 0.254718
v 0.210378 -0.884797 0.254718
v 0.210378 -1.325333 0.254718
v 0.210378 -1.765870 0.254718
v 0.210378 1.317886 0.695255
v 0.210378 0.877349 0.695255
v 0.210378 0.436813 0.695255
v 0.210378 -0.003724 0.695255
v 0.210378 -0.444260 0.695255
v 0.210378 -0.884797 0.695255
v 0.210378 -1.325333 0.695255
v 0.210378 -1.765870 0.695255
v 0.210378 1.758422 1.135791
v 0.210378 1.317886 1.135791
v 0.210378 0.877349 1.135791
v 0.210378 0.436813 1.135791
v 0.210378 -0.003724 1.135791
v 0.210378 -0.444260 1.135791
v 0.210378 -0.884797 1.135791
v 0.210378 -1.325333 1.135791
v 0.210378 -1.765870 1.135791
v 0.210378 1.758422 1.576328
v 0.210378 1.317886 1.576328
v 0.210378 0.877349 1.576328
v 0.210378 0.436813 1.576328
v 0.210378 -0.003724 1.576328
v 0.210378 -0.444260 1.576328
v 0.210378 -0.884797 1.576328
v 0.210378 -1.325333 1.576328
v 0.210378 0.436813 2.016864
v 0.210378 -0.003724 2.016864
v 0.210378 -0.444260 2.016864
v 0.210378 -0.884797 2.016864
v 0.210378 -1.325333 2.016864
v -0.210378 0.436813 2.016864
v -0.210378 -0.003724 2.016864
v -0.210378 -0.444260 2.016864
v -0.210378 -0.884797 2.016864
v -0.210378 -1.325333 2.016864
v -0.210378 1.758422 1.576328
v -0.210378 1.317886 1.576328
v -0.210378 0.877349 1.576328
v -0.210378 0.436813 1.576328
v -0.210378 -0.003724 1.576328
v -0.210378 -0.444260 1.576328
v -0.210378 -0.884797 1.576328
v -0.210378 -1.325333 1.576328
v -0.210378 1.758422 1.135791
v -0.210378 1.317886 1.135791
v -0.210378 0.877349 1.135791
v -0.210378 0.436813 1.135791
v -0.210378 -0.003724 1.135791
v -0.210378 -0.444260 1.135791
v -0.210378 -0.884797 1.135791
v -0.210378 -1.325333 1.135791
v -0.210378 -1.765870 1.135791
v -0.210378 1.317886 0.695255
v -0.210378 0.877349 0.695255
v -0.210378 0.436813 0.695255
v -0.210378 -0.003724 0.695255
v -0.210378 -0.444260 0.695255
v -0.210378 -0.884797 0.695255
v -0.210378 -1.325333 0.695255
v -0.210378 -1.765870 0.695255
v -0.210378 0.877349 0.254718
v -0.210378 0.436813 0.254718
v -0.210378 -0.003724 0.254718
v -0.210378 -0.444260 0.254718
v -0.210378 -0.884797 0.254718
v -0.210378 -1.325333 0.254718
v -0.210378 -1.765870 0.254719
v -0.210378 0.877349 -0.185818
v -0.210378 0.436813 -0.185818
v -0.210378 -0.003724 -0.185818
v -0.210378 -0.444260 -0.185818
v -0.210378 -0.884797 -0.185818
v -0.210378 -1.325333 -0.185818
v -0.210378 -1.765870 -0.185818
v -0.210378 1.317886 -0.626354
v -0.210378 0.877349 -0.626354
v -0.210378 0.436813 -0.626354
v -0.210378 -0.003724 -0.626354
v -0.210378 -0.444260 -0.626354
v -0.210378 -0.884797 -0.626354
v -0.210378 -1.325333 -0.626354
v -0.210378 -1.765870 -0.626354
v -0.210378 1.758422 -1.066891
v -0.210378 1.317886 -1.066891
v -0.210378 0.877349 -1.066891
v -0.210378 0.436813 -1.066891
v -0.210378 -0.003724 -1.066891
v -0.210378 -0.444260 -1.066891
v -0.210378 -0.884797 -1.066891
v -0.210378 -1.325333 -1.066891
v -0.210378 -1.765870 -1.066891
v -0.210378 1.758422 -1.507427
v -0.210378 1.317886 -1.507427
v -0.210378 0.877349 -1.507427
v -0.210378 0.436813 -1.507427
v -0.210378 -0.003724 -1.507427
v -0.210378 -0.444260 -1.507427
v -0.210378 -0.884797 -1.507427
v -0.210378 -1.325333 -1.507427
v -0.210378 0.436813 -1.947964
v -0.210378 -0.003724 -1.947964
v -0.210378 -0.444260 -1.947964
v -0.210378 -0.884797 -1.947964
v -0.210378 -1.325333 -1.947964
vt 0.465909 0.204545
vt 0.488636 0.204545
vt 0.488636 0.227273
vt 0.465909 0.227273
vt 0.511364 0.204545
vt 0.511364 0.227273
vt 0.420455 0.181818
vt 0.443182 0.181818
vt 0.443182 0.204545
vt 0.420455 0.204545
vt 0.465909 0.181818
vt 0.488636 0.181818
vt 0.511364 0.181818
vt 0.534091 0.181818
vt 0.534091 0.204545
vt 0.556818 0.181818
vt 0.579545 0.181818
vt 0.579545 0.204545
vt 0.556818 0.204545
vt 0.397727 0.159091
vt 0.420455 0.159091
vt 0.397727 0.181818
vt 0.443182 0.159091
vt 0.465909 0.159091
vt 0.488636 0.159091
vt 0.488636 0.590909
vt 0.488636 0.568182
vt 0.511364 0.159091
vt 0.534091 0.159091
vt 0.556818 0.159091
vt 0.397727 0.136364
vt 0.420455 0.136364
vt 0.443182 0.136364
vt 0.465909 0.136364
vt 0.488636 0.136364
vt 0.511364 0.136364
vt 0.534091 0.136364
vt 0.443182 0.113636
vt 0.465909 0.113636
vt 0.488636 0.113636
vt 0.511364 0.113636
vt 0.534091 0.113636
vt 0.397727 0.090909
vt 0.420455 0.090909
vt 0.420455 0.113636
vt 0.397727 0.113636
vt 0.443182 0.090909
vt 0.465909 0.090909
vt 0.488636 0.090909
vt 0.511364 0.090909
vt 0.534091 0.090909
vt 0.397727 0.068182
vt 0.420455 0.068182
vt 0.443182 0.068182
vt 0.465909 0.068182
vt 0.488636 0.068182
vt 0.488636 0.659091
vt 0.511364 0.659091
vt 0.511364 0.068182
vt 0.534091 0.068182
vt 0.556818 0.068182
vt 0.556818 0.090909
vt 0.420455 0.045455
vt 0.443182 0.045455
vt 0.465909 0.045455
vt 0.488636 0.045455
vt 0.511364 0.045455
vt 0.465909 0.022727
vt 0.488636 0.022727
vt 0.420455 0.000000
vt 0.443182 0.000000
vt 0.443182 0.022727
vt 0.420455 0.022727
vt 0.465909 0.000000
vt 0.488636 0.000000
vt 0.465909 0.704545
vt 0.488636 0.704545
vt 0.488636 0.727273
vt 0.465909 0.727273
vt 0.420455 0.681818
vt 0.443182 0.681818
vt 0.443182 0.704545
vt 0.420455 0.704545
vt 0.465909 0.681818
vt 0.488636 0.681818
vt 0.511364 0.681818
vt 0.511364 0.704545
vt 0.397727 0.659091
vt 0.420455 0.659091
vt 0.397727 0.681818
vt 0.443182 0.659091
vt 0.465909 0.659091
vt 0.534091 0.659091
vt 0.534091 0.681818
vt 0.556818 0.659091
vt 0.556818 0.681818
vt 0.397727 0.636364
vt 0.420455 0.636364
vt 0.443182 0.636364
vt 0.465909 0.636364
vt 0.488636 0.636364
vt 0.511364 0.636364
vt 0.534091 0.636364
vt 0.443182 0.613636
vt 0.465909 0.613636
vt 0.488636 0.613636
vt 0.511364 0.613636
vt 0.534091 0.613636
vt 0.397727 0.590909
vt 0.420455 0.590909
vt 0.420455 0.613636
vt 0.397727 0.613636
vt 0.443182 0.590909
vt 0.465909 0.590909
vt 0.511364 0.590909
vt 0.534091 0.590909
vt 0.397727 0.568182
vt 0.420455 0.568182
vt 0.443182 0.568182
vt 0.465909 0.568182
vt 0.511364 0.568182
vt 0.534091 0.568182
vt 0.556818 0.568182
vt 0.556818 0.590909
vt 0.420455 0.545455
vt 0.443182 0.545455
vt 0.465909 0.545455
vt 0.488636 0.545455
vt 0.511364 0.545455
vt 0.534091 0.545455
vt 0.556818 0.545455
vt 0.579545 0.545455
vt 0.579545 0.568182
vt 0.465909 0.522727
vt 0.488636 0.522727
vt 0.511364 0.522727
vt 0.420455 0.500000
vt 0.443182 0.500000
vt 0.443182 0.522727
vt 0.420455 0.522727
vt 0.465909 0.500000
vt 0.488636 0.500000
vt 0.000000 0.000000
vt 0.420455 0.750000
vt 0.443182 0.750000
vt 0.443182 1.000000
vt 0.420455 1.000000
vt 0.465909 0.750000
vt 0.465909 1.000000
vt 0.488636 0.750000
vt 0.488636 1.000000
vt 0.420455 0.727273
vt 0.443182 0.727273
vt 0.420455 0.250000
vt 0.443182 0.250000
vt 0.465909 0.250000
vt 0.488636 0.250000
vt 0.420455 0.227273
vt 0.443182 0.227273
vt 0.000000 0.000000
vt 0.000000 0.000000
vt 0.000000 0.000000
vt 0.000000 0.000000
vt 0.000000 0.000000
vt 0.000000 0.000000
vt 0.000000 0.000000
vt 0.000000 0.000000
vt 0.000000 0.000000
vt 0.000000 0.000000
vt 0.000000 0.000000
vn -1.0000 0.0000 0.0000
vn 0.0000 1.0000 0.0000
vn 0.0000 0.0000 1.0000
vn 1.0000 0.0000 0.0000
vn 0.0000 0.0000 -1.0000
vn 0.0000 -1.0000 0.0000
usemtl None
s off
f 157/1/1 156/2/1 161/3/1 162/4/1
f 156/2/1 155/5/1 160/6/1 161/3/1
f 150/7/1 149/8/1 158/9/1 159/10/1
f 149/8/1 148/11/1 157/1/1 158/9/1
f 148/11/1 147/12/1 156/2/1 157/1/1
f 147/12/1 146/13/1 155/5/1 156/2/1
f 146/13/1 145/14/1 154/15/1 155/5/1
f 144/16/1 143/17/1 152/18/1 153/19/1
f 142/20/1 141/21/1 150/7/1 151/22/1
f 140/23/1 139/24/1 148/11/1 149/8/1
f 139/24/1 138/25/1 147/12/1 148/11/1
f 138/25/2 42/26/2 34/27/2 147/12/2
f 137/28/1 136/29/1 145/14/1 146/13/1
f 136/29/1 135/30/1 144/16/1 145/14/1
f 134/31/1 133/32/1 141/21/1 142/20/1
f 132/33/1 131/34/1 139/24/1 140/23/1
f 131/34/1 130/35/1 138/25/1 139/24/1
f 130/35/1 129/36/1 137/28/1 138/25/1
f 129/36/1 128/37/1 136/29/1 137/28/1
f 125/38/1 124/39/1 131/34/1 132/33/1
f 124/39/1 123/40/1 130/35/1 131/34/1
f 123/40/1 122/41/1 129/36/1 130/35/1
f 122/41/1 121/42/1 128/37/1 129/36/1
f 120/43/1 119/44/1 126/45/1 127/46/1
f 118/47/1 117/48/1 124/39/1 125/38/1
f 117/48/1 116/49/1 123/40/1 124/39/1
f 116/49/1 115/50/1 122/41/1 123/40/1
f 115/50/1 114/51/1 121/42/1 122/41/1
f 112/52/1 111/53/1 119/44/1 120/43/1
f 110/54/1 109/55/1 117/48/1 118/47/1
f 109/55/1 108/56/1 116/49/1 117/48/1
f 64/57/3 63/58/3 115/50/3 116/49/3
f 107/59/1 106/60/1 114/51/1 115/50/1
f 106/60/1 105/61/1 113/62/1 114/51/1
f 103/63/1 102/64/1 110/54/1 111/53/1
f 102/64/1 101/65/1 109/55/1 110/54/1
f 101/65/1 100/66/1 108/56/1 109/55/1
f 100/66/1 99/67/1 107/59/1 108/56/1
f 93/68/1 92/69/1 100/66/1 101/65/1
f 1/70/1 2/71/1 94/72/1 95/73/1
f 2/71/1 3/74/1 93/68/1 94/72/1
f 3/74/1 4/75/1 92/69/1 93/68/1
f 83/76/4 82/77/4 87/78/4 88/79/4
f 76/80/4 75/81/4 84/82/4 85/83/4
f 75/81/4 74/84/4 83/76/4 84/82/4
f 74/84/4 73/85/4 82/77/4 83/76/4
f 73/85/4 72/86/4 81/87/4 82/77/4
f 68/88/4 67/89/4 76/80/4 77/90/4
f 66/91/4 65/92/4 74/84/4 75/81/4
f 65/92/4 64/57/4 73/85/4 74/84/4
f 108/56/2 73/85/2 64/57/2 116/49/2
f 63/58/4 62/93/4 71/94/4 72/86/4
f 62/93/4 61/95/4 70/96/4 71/94/4
f 60/97/4 59/98/4 67/89/4 68/88/4
f 58/99/4 57/100/4 65/92/4 66/91/4
f 57/100/4 56/101/4 64/57/4 65/92/4
f 56/101/4 55/102/4 63/58/4 64/57/4
f 55/102/4 54/103/4 62/93/4 63/58/4
f 51/104/4 50/105/4 57/100/4 58/99/4
f 50/105/4 49/106/4 56/101/4 57/100/4
f 49/106/4 48/107/4 55/102/4 56/101/4
f 48/107/4 47/108/4 54/103/4 55/102/4
f 46/109/4 45/110/4 52/111/4 53/112/4
f 44/113/4 43/114/4 50/105/4 51/104/4
f 43/114/4 42/26/4 49/106/4 50/105/4
f 42/26/4 41/115/4 48/107/4 49/106/4
f 41/115/4 40/116/4 47/108/4 48/107/4
f 38/117/4 37/118/4 45/110/4 46/109/4
f 36/119/4 35/120/4 43/114/4 44/113/4
f 35/120/4 34/27/4 42/26/4 43/114/4
f 73/85/5 108/56/5 107/59/5 72/86/5
f 33/121/4 32/122/4 40/116/4 41/115/4
f 32/122/4 31/123/4 39/124/4 40/116/4
f 29/125/4 28/126/4 36/119/4 37/118/4
f 28/126/4 27/127/4 35/120/4 36/119/4
f 27/127/4 26/128/4 34/27/4 35/120/4
f 26/128/4 25/129/4 33/121/4 34/27/4
f 25/129/4 24/130/4 32/122/4 33/121/4
f 23/131/4 22/132/4 30/133/4 31/123/4
f 19/134/4 18/135/4 26/128/4 27/127/4
f 18/135/4 17/136/4 25/129/4 26/128/4
f 12/137/4 11/138/4 20/139/4 21/140/4
f 11/138/4 10/141/4 19/134/4 20/139/4
f 10/141/4 9/142/4 18/135/4 19/134/4
f 80/143/4 81/87/4 72/86/4 71/94/4
f 16/144/3 15/145/3 2/146/3 1/147/3
f 15/145/3 14/148/3 3/149/3 2/146/3
f 14/148/3 13/150/3 4/151/3 3/149/3
f 90/152/4 89/153/4 15/145/4 16/144/4
f 89/153/4 88/79/4 14/148/4 15/145/4
f 88/79/4 87/78/4 13/150/4 14/148/4
f 8/154/5 7/155/5 11/138/5 12/137/5
f 7/155/5 6/156/5 10/141/5 11/138/5
f 6/156/5 5/157/5 9/142/5 10/141/5
f 164/158/1 163/159/1 7/155/1 8/154/1
f 163/159/1 162/4/1 6/156/1 7/155/1
f 162/4/1 161/3/1 5/157/1 6/156/1
f 98/160/1 106/60/1 107/59/1 99/67/1
f 105/161/1 97/162/1 96/163/1 104/164/1
f 69/165/4 78/166/4 79/167/4 70/168/4
f 86/169/4 87/78/4 82/77/4 81/87/4
f 92/69/1 91/170/1 99/67/1 100/66/1
f 98/160/3 99/67/3 81/87/3 80/143/3
f 81/87/2 99/67/2 91/170/2 86/169/2
f 87/78/3 86/169/3 91/170/3 92/69/3
f 4/151/2 13/150/2 87/78/2 92/69/2
f 80/143/2 71/94/2 106/60/2 98/160/2
f 114/51/2 62/93/2 54/103/2 121/42/2
f 121/42/2 54/103/2 47/108/2 128/37/2
f 128/37/2 47/108/2 40/116/2 136/29/2
f 145/14/2 32/122/2 24/130/2 154/15/2
f 155/5/2 25/129/2 17/136/2 160/6/2
f 9/142/2 5/157/2 161/3/2 18/135/2
f 18/135/5 161/3/5 160/6/5 17/136/5
f 25/129/5 155/5/5 154/15/5 24/130/5
f 32/122/5 145/14/5 144/16/5 31/123/5
f 135/30/2 39/124/2 31/123/2 144/16/2
f 40/116/3 39/124/3 135/30/3 136/29/3
f 62/93/5 114/51/5 113/62/5 61/95/5
f 71/94/3 70/96/3 105/61/3 106/60/3
f 105/61/2 70/96/2 61/95/2 113/62/2
f 104/164/5 69/165/5 70/168/5 105/61/5
f 105/61/6 70/96/6 79/167/6 97/162/6
f 96/163/3 97/162/3 79/167/3 78/166/3
f 96/163/2 78/166/2 69/165/2 104/164/2
f 30/133/3 143/17/3 144/16/3 31/123/3
f 143/17/2 30/133/2 22/132/2 152/18/2
f 153/19/6 23/131/6 31/123/6 144/16/6
f 23/131/5 153/19/5 152/18/5 22/132/5
f 110/54/6 118/47/6 66/91/6 75/81/6
f 118/47/6 125/38/6 58/99/6 66/91/6
f 125/38/6 132/33/6 51/104/6 58/99/6
f 132/33/6 140/23/6 44/113/6 51/104/6
f 140/23/6 149/8/6 36/119/6 44/113/6
f 37/118/3 36/119/3 149/8/3 150/7/3
f 76/80/5 111/53/5 110/54/5 75/81/5
f 111/53/2 76/80/2 67/89/2 119/44/2
f 119/44/2 67/89/2 59/98/2 126/45/2
f 133/32/2 52/111/2 45/110/2 141/21/2
f 141/21/2 45/110/2 37/118/2 150/7/2
f 53/112/3 52/111/3 133/32/3 134/31/3
f 60/97/5 127/46/5 126/45/5 59/98/5
f 120/43/6 127/46/6 60/97/6 68/88/6
f 112/52/6 120/43/6 68/88/6 77/90/6
f 134/31/6 142/20/6 46/109/6 53/112/6
f 142/20/6 151/22/6 38/117/6 46/109/6
f 37/118/5 38/117/5 151/22/5 150/7/5
f 159/10/6 29/125/6 37/118/6 150/7/6
f 29/125/5 159/10/5 158/9/5 28/126/5
f 28/126/5 158/9/5 157/1/5 27/127/5
f 157/1/6 162/4/6 19/134/6 27/127/6
f 20/139/3 19/134/3 162/4/3 163/159/3
f 21/140/3 20/139/3 163/159/3 164/158/3
f 12/137/6 21/140/6 164/158/6 8/154/6
f 77/90/3 76/80/3 111/53/3 112/52/3
f 111/53/6 76/80/6 85/83/6 103/63/6
f 85/83/3 84/82/3 102/64/3 103/63/3
f 84/82/3 83/76/3 101/65/3 102/64/3
f 93/68/6 101/65/6 83/76/6 88/79/6
f 89/153/5 94/72/5 93/68/5 88/79/5
f 90/152/5 95/73/5 94/72/5 89/153/5
f 1/147/6 95/73/6 90/152/6 16/144/6
f 42/26/5 138/25/5 137/28/5 41/115/5
f 34/27/3 33/121/3 146/13/3 147/12/3
f 137/28/6 146/13/6 33/121/6 41/115/6
f 107/59/6 115/50/6 63/58/6 72/86/6
